<mxfile host="app.diagrams.net" modified="2023-04-19T05:52:32.432Z" agent="Mozilla/5.0 (Macintosh; Intel Mac OS X 10_15_7) AppleWebKit/537.36 (KHTML, like Gecko) Chrome/112.0.0.0 Safari/537.36" version="21.1.7" etag="UkYHLtOKf-v7K4eQ-tGe" type="github">
  <diagram name="Page-1" id="YU3Ewgc2cdwsww_SChBM">
    <mxGraphModel>
      <root>
        <mxCell id="0" />
        <mxCell id="1" parent="0" />
      </root>
    </mxGraphModel>
  </diagram>
</mxfile>
